<svg width="30" height="30" viewBox="0 0 30 30" fill="none" xmlns="http://www.w3.org/2000/svg">
<path fill-rule="evenodd" clip-rule="evenodd" d="M4.16522 27.001L1.75781 0H28.2114L25.8014 26.9965L14.9686 30L4.16522 27.001Z" fill="#0071BC"/>
<path fill-rule="evenodd" clip-rule="evenodd" d="M15.0068 27.7028L23.7494 25.2978L25.7978 2.24863H15.0068V27.7028Z" fill="#29ABE2"/>
<path fill-rule="evenodd" clip-rule="evenodd" d="M7.26831 12.1687L7.55831 15.4753L15.0068 12.1687V8.8566L7.26831 12.1687Z" fill="#B3B3B3"/>
<path fill-rule="evenodd" clip-rule="evenodd" d="M23.2562 5.32114L15.0068 8.85659V12.1686L22.9718 8.62783L23.2562 5.32114Z" fill="#E6E6E6"/>
<path fill-rule="evenodd" clip-rule="evenodd" d="M15.0069 20.8205L14.9813 20.8244L11.2874 19.8324L11.046 17.1948H7.72156L8.18549 22.391L14.9805 24.2724L15.0069 24.2662V20.8205Z" fill="#E6E6E6"/>
<path fill-rule="evenodd" clip-rule="evenodd" d="M15.0068 12.1686V15.4753H19.0511L18.6835 19.7986L15.0068 20.8234V24.2688L21.7793 22.3873L22.6712 12.1686H15.0068Z" fill="white"/>
<path fill-rule="evenodd" clip-rule="evenodd" d="M15.0068 12.1686H7.26831L7.55831 15.4753H15.0068V12.1686Z" fill="#E6E6E6"/>
<path fill-rule="evenodd" clip-rule="evenodd" d="M15.0068 8.62783V5.32114H14.9732H6.68042L6.97386 8.62783H15.0068Z" fill="#E6E6E6"/>
<path fill-rule="evenodd" clip-rule="evenodd" d="M15.0068 5.32114V8.58637V8.62783H22.9718L23.2562 5.32114H15.0068Z" fill="white"/>
</svg>
