<svg width="30" height="30" viewBox="0 0 30 30" fill="none" xmlns="http://www.w3.org/2000/svg">
<path fill-rule="evenodd" clip-rule="evenodd" d="M23.422 23.1152C23.422 24.7236 19.6961 26.0196 15.1024 26.0196C10.5087 26.0196 6.78284 24.712 6.78284 23.1152C6.78284 21.5069 10.5087 20.2109 15.1024 20.2109C19.6961 20.2109 23.422 21.5069 23.422 23.1152Z" fill="#9EDCF2"/>
<mask id="mask0_145_110" style="mask-type:alpha" maskUnits="userSpaceOnUse" x="10" y="22" width="10" height="8">
<path fill-rule="evenodd" clip-rule="evenodd" d="M11.527 28.3222C11.7121 29.19 12.1634 29.6992 12.6147 30H17.3703C17.9489 29.6066 18.539 28.866 18.539 27.4775V23.8905C18.539 23.8905 18.6084 22.9995 19.43 22.7103C19.43 22.7103 19.9044 22.3747 19.3953 22.1896C19.3953 22.1896 17.1389 22.0044 17.1389 23.8558V26.5865C17.1389 26.5865 17.2315 27.5932 16.6992 28.0098V24.631C16.6992 24.631 16.7339 23.5549 17.2894 23.15C17.2894 23.15 17.6596 22.4904 16.8497 22.664C16.8497 22.664 15.2991 22.8838 15.2297 24.7005L15.195 28.1718H14.8247L14.79 24.7005C14.7206 22.8954 13.1701 22.664 13.1701 22.664C12.3601 22.4788 12.7304 23.15 12.7304 23.15C13.2858 23.5549 13.3205 24.631 13.3205 24.631V28.0445C12.7882 27.6627 12.8808 26.5865 12.8808 26.5865V23.8558C12.8808 22.0044 10.6244 22.1896 10.6244 22.1896C10.1037 22.3747 10.5897 22.7103 10.5897 22.7103C11.3997 23.0111 11.4807 23.8905 11.4807 23.8905V26.4014L11.527 28.3222Z" fill="white"/>
</mask>
<g mask="url(#mask0_145_110)">
<path fill-rule="evenodd" clip-rule="evenodd" d="M23.422 23.1152C23.422 24.7236 19.6961 26.0196 15.1024 26.0196C10.5087 26.0196 6.78284 24.712 6.78284 23.1152C6.78284 21.5069 10.5087 20.2109 15.1024 20.2109C19.6961 20.2109 23.422 21.5069 23.422 23.1152Z" fill="#7DBCE7"/>
</g>
<path fill-rule="evenodd" clip-rule="evenodd" d="M5.60261 14.5643L5.35962 15.3974C5.35962 15.3974 5.30176 15.6982 5.57947 15.7561C5.88032 15.7445 5.85717 15.4668 5.83403 15.3858L5.60261 14.5643Z" fill="#9EDCF2"/>
<path fill-rule="evenodd" clip-rule="evenodd" d="M29.7745 11.0582L29.7976 10.9541C27.3561 10.4681 24.8568 10.4565 23.341 10.526C23.584 9.635 23.665 8.59361 23.665 7.44808C23.665 5.79342 23.0401 4.47433 22.045 3.47922C22.2186 2.91224 22.45 1.651 21.8136 0.0426236C21.8136 0.0426236 20.6796 -0.316078 18.0993 1.408C17.0926 1.15344 16.0165 1.02616 14.9404 1.02616C13.7602 1.02616 12.5683 1.17658 11.446 1.47743C8.78462 -0.33922 7.61595 0.0310525 7.61595 0.0310525C6.85226 1.94027 7.32667 3.36351 7.46553 3.71064C6.56299 4.6826 6.01915 5.9207 6.01915 7.43651C6.01915 8.58204 6.14643 9.61186 6.47042 10.5028C4.94304 10.445 2.53627 10.4681 0.175781 10.9425L0.198923 11.0467C2.55941 10.5723 4.98933 10.5607 6.50513 10.6185C6.57456 10.8037 6.65555 10.9888 6.73655 11.1624C5.23232 11.2087 2.67512 11.4054 0.222065 12.0996L0.256778 12.2038C2.73298 11.5095 5.31332 11.3244 6.80598 11.2781C7.70852 12.9443 9.46731 14.032 12.6146 14.3675C12.1634 14.6684 11.7121 15.1775 11.527 16.0453C10.9137 16.3346 8.9929 17.052 7.8358 15.0618C7.8358 15.0618 7.18782 13.8816 5.94972 13.789C5.94972 13.789 4.74634 13.7659 5.86872 14.5411C5.86872 14.5411 6.66713 14.923 7.22253 16.3462C7.22253 16.3462 7.95151 18.7761 11.4344 17.9893V20.477C11.4344 20.477 11.365 21.368 10.5434 21.6573C10.5434 21.6573 10.0574 21.9929 10.5781 22.178C10.5781 22.178 12.8345 22.3631 12.8345 20.5118V17.781C12.8345 17.781 12.7419 16.6933 13.2742 16.3231V20.8126C13.2742 20.8126 13.2395 21.8887 12.6841 22.2937C12.6841 22.2937 12.3138 22.9532 13.1238 22.7797C13.1238 22.7797 14.6743 22.5598 14.7437 20.7432L14.7784 16.1958H15.1487L15.1834 20.7432C15.2528 22.5483 16.8033 22.7797 16.8033 22.7797C17.6133 22.9648 17.243 22.2937 17.243 22.2937C16.6876 21.8887 16.6529 20.8126 16.6529 20.8126V16.3578C17.1852 16.7743 17.0926 17.781 17.0926 17.781V20.5118C17.0926 22.3631 19.349 22.178 19.349 22.178C19.8697 21.9929 19.3837 21.6573 19.3837 21.6573C18.5737 21.3564 18.4927 20.477 18.4927 20.477V16.89C18.4927 15.4899 17.9026 14.7494 17.324 14.3675C20.6796 14.032 22.288 12.9559 23.0286 11.2665C24.4981 11.3012 27.1478 11.4864 29.6703 12.2038L29.705 12.0996C27.1941 11.3938 24.5675 11.2087 23.0748 11.1624C23.1443 10.9888 23.2021 10.8152 23.26 10.6301C24.8105 10.5723 27.3214 10.5723 29.7745 11.0582Z" fill="#010101"/>
<path fill-rule="evenodd" clip-rule="evenodd" d="M20.3788 7.36709C21.0962 8.02664 21.5243 8.81346 21.5243 9.65815C21.5243 13.6386 18.5621 13.7427 14.9057 13.7427C11.2492 13.7427 8.28705 13.1873 8.28705 9.65815C8.28705 8.81346 8.70361 8.02664 9.42101 7.37866C10.6128 6.29098 12.6262 6.86953 14.9057 6.86953C17.1852 6.86953 19.187 6.27941 20.3788 7.36709Z" fill="#F5CCB3"/>
<path fill-rule="evenodd" clip-rule="evenodd" d="M12.7072 9.86642C12.7072 10.9657 12.0939 11.8451 11.3303 11.8451C10.5666 11.8451 9.95331 10.9541 9.95331 9.86642C9.95331 8.76718 10.5666 7.88778 11.3303 7.88778C12.0939 7.87621 12.7072 8.76718 12.7072 9.86642Z" fill="white"/>
<path fill-rule="evenodd" clip-rule="evenodd" d="M12.2675 9.88956C12.2675 10.6185 11.8509 11.2087 11.3534 11.2087C10.8443 11.2087 10.4393 10.6185 10.4393 9.88956C10.4393 9.16059 10.8558 8.57047 11.3534 8.57047C11.8509 8.57047 12.2675 9.16059 12.2675 9.88956Z" fill="#AF5C51"/>
<path fill-rule="evenodd" clip-rule="evenodd" d="M20.1011 9.86642C20.1011 10.9657 19.4878 11.8451 18.7241 11.8451C17.9604 11.8451 17.3472 10.9541 17.3472 9.86642C17.3472 8.76718 17.9604 7.88778 18.7241 7.88778C19.4762 7.87621 20.1011 8.76718 20.1011 9.86642Z" fill="white"/>
<path fill-rule="evenodd" clip-rule="evenodd" d="M19.6498 9.88956C19.6498 10.6185 19.2333 11.2087 18.7357 11.2087C18.2266 11.2087 17.8216 10.6185 17.8216 9.88956C17.8216 9.16059 18.2382 8.57047 18.7357 8.57047C19.2448 8.57047 19.6498 9.16059 19.6498 9.88956Z" fill="#AF5C51"/>
<path fill-rule="evenodd" clip-rule="evenodd" d="M15.276 11.6252C15.276 11.8104 15.1256 11.9723 14.9289 11.9723C14.7437 11.9723 14.5817 11.8219 14.5817 11.6252C14.5817 11.4285 14.7321 11.2781 14.9289 11.2781C15.114 11.2781 15.276 11.4285 15.276 11.6252Z" fill="#AF5C51"/>
<path fill-rule="evenodd" clip-rule="evenodd" d="M14.1304 12.493C14.1073 12.4352 14.142 12.3773 14.1998 12.3542C14.2577 12.3311 14.3156 12.3658 14.3387 12.4236C14.4313 12.6782 14.6627 12.8402 14.9288 12.8402C15.195 12.8402 15.4264 12.6666 15.5189 12.4236C15.5421 12.3658 15.5999 12.3311 15.6578 12.3542C15.7156 12.3773 15.7504 12.4352 15.7272 12.493C15.6115 12.8286 15.2875 13.06 14.9288 13.06C14.5701 13.06 14.2461 12.8286 14.1304 12.493Z" fill="#AF5C51"/>
<path fill-rule="evenodd" clip-rule="evenodd" d="M6.48202 14.0667C6.48202 14.1593 6.37788 14.2287 6.23902 14.2287C6.11174 14.2287 5.99603 14.1593 5.99603 14.0667C5.99603 13.9741 6.10017 13.9047 6.23902 13.9047C6.37788 13.9047 6.48202 13.9741 6.48202 14.0667Z" fill="#C4E5D9"/>
<path fill-rule="evenodd" clip-rule="evenodd" d="M7.1531 14.437C7.1531 14.5295 7.04896 14.599 6.91011 14.599C6.78282 14.599 6.66711 14.5295 6.66711 14.437C6.66711 14.3444 6.77125 14.275 6.91011 14.275C7.04896 14.275 7.1531 14.3444 7.1531 14.437Z" fill="#C4E5D9"/>
<path fill-rule="evenodd" clip-rule="evenodd" d="M7.55807 14.923C7.55807 15.0155 7.45393 15.085 7.31507 15.085C7.18779 15.085 7.07208 15.0155 7.07208 14.923C7.07208 14.8304 7.17622 14.761 7.31507 14.761C7.45393 14.7494 7.55807 14.8304 7.55807 14.923Z" fill="#C4E5D9"/>
<path fill-rule="evenodd" clip-rule="evenodd" d="M7.92837 15.4784C7.92837 15.5709 7.82423 15.6404 7.68537 15.6404C7.55809 15.6404 7.44238 15.5709 7.44238 15.4784C7.44238 15.3858 7.54652 15.3164 7.68537 15.3164C7.82423 15.3048 7.92837 15.3858 7.92837 15.4784Z" fill="#C4E5D9"/>
<path fill-rule="evenodd" clip-rule="evenodd" d="M8.33333 15.9875C8.33333 16.0801 8.22919 16.1495 8.09034 16.1495C7.96306 16.1495 7.84735 16.0801 7.84735 15.9875C7.84735 15.8949 7.95149 15.8255 8.09034 15.8255C8.22919 15.8255 8.33333 15.8949 8.33333 15.9875Z" fill="#C4E5D9"/>
<path fill-rule="evenodd" clip-rule="evenodd" d="M8.88875 16.4388C8.88875 16.5313 8.78461 16.6008 8.64576 16.6008C8.51848 16.6008 8.40277 16.5313 8.40277 16.4388C8.40277 16.3462 8.50691 16.2768 8.64576 16.2768C8.78461 16.2652 8.88875 16.3462 8.88875 16.4388Z" fill="#C4E5D9"/>
<path fill-rule="evenodd" clip-rule="evenodd" d="M9.66402 16.728C9.66402 16.8206 9.55988 16.89 9.42103 16.89C9.29375 16.89 9.17804 16.8206 9.17804 16.728C9.17804 16.6355 9.28218 16.566 9.42103 16.566C9.55988 16.566 9.66402 16.6355 9.66402 16.728Z" fill="#C4E5D9"/>
<path fill-rule="evenodd" clip-rule="evenodd" d="M10.4393 16.728C10.4393 16.8206 10.3352 16.89 10.1963 16.89C10.069 16.89 9.95331 16.8206 9.95331 16.728C9.95331 16.6355 10.0574 16.566 10.1963 16.566C10.3352 16.566 10.4393 16.6355 10.4393 16.728Z" fill="#C4E5D9"/>
<path fill-rule="evenodd" clip-rule="evenodd" d="M11.2261 16.6008C11.2261 16.6933 11.122 16.7628 10.9831 16.7628C10.8558 16.7628 10.7401 16.6933 10.7401 16.6008C10.7401 16.5082 10.8443 16.4388 10.9831 16.4388C11.1104 16.4388 11.2261 16.5082 11.2261 16.6008Z" fill="#C4E5D9"/>
</svg>
