<svg width="30" height="30" viewBox="0 0 30 30" fill="none" xmlns="http://www.w3.org/2000/svg">
<g clip-path="url(#clip0_10_364)">
<path d="M11.1101 23.2007C11.1101 23.2007 9.96365 23.8673 11.926 24.0929C14.3032 24.3641 15.5182 24.3252 18.138 23.8294C18.138 23.8294 18.8268 24.2613 19.7887 24.6353C13.9158 27.1523 6.49728 24.4896 11.1101 23.2007Z" fill="#5382A1"/>
<path d="M10.3926 19.9161C10.3926 19.9161 9.10676 20.8679 11.0705 21.0711C13.61 21.333 15.6155 21.3545 19.0857 20.6862C19.0857 20.6862 19.5657 21.1729 20.3205 21.439C13.2198 23.5153 5.31104 21.6027 10.3926 19.9161Z" fill="#5382A1"/>
<path d="M16.4424 14.3445C17.8894 16.0105 16.0622 17.5098 16.0622 17.5098C16.0622 17.5098 19.7365 15.6129 18.0491 13.2377C16.473 11.0226 15.2644 9.92205 21.8073 6.12739C21.8073 6.12739 11.5371 8.69242 16.4424 14.3445Z" fill="#E76F00"/>
<path d="M24.2097 25.6301C24.2097 25.6301 25.0581 26.3291 23.2754 26.8699C19.8855 27.8968 9.16633 28.2069 6.18859 26.9108C5.11817 26.4451 7.12551 25.7989 7.75694 25.6633C8.41546 25.5205 8.79178 25.5471 8.79178 25.5471C7.60137 24.7085 1.09742 27.1937 5.4881 27.9055C17.4621 29.8473 27.3156 27.0311 24.2097 25.6301Z" fill="#5382A1"/>
<path d="M11.6617 16.513C11.6617 16.513 6.20921 17.808 9.73081 18.2783C11.2177 18.4774 14.1819 18.4324 16.9429 18.201C19.1994 18.0107 21.4652 17.606 21.4652 17.606C21.4652 17.606 20.6695 17.9467 20.0939 18.3398C14.557 19.796 3.8608 19.1185 6.9401 17.629C9.54427 16.3702 11.6617 16.513 11.6617 16.513Z" fill="#5382A1"/>
<path d="M21.4426 21.9802C27.0711 19.0555 24.4687 16.2448 22.6523 16.6234C22.207 16.7161 22.0085 16.7964 22.0085 16.7964C22.0085 16.7964 22.1738 16.5375 22.4895 16.4254C26.083 15.1621 28.8466 20.1515 21.3295 22.1276C21.3295 22.1277 21.4166 22.0499 21.4426 21.9802Z" fill="#5382A1"/>
<path d="M18.0492 0C18.0492 0 21.1663 3.11819 15.0927 7.91308C10.2223 11.7594 13.9821 13.9525 15.0907 16.4582C12.2477 13.8931 10.1614 11.6351 11.5611 9.53359C13.6155 6.44872 19.3068 4.95306 18.0492 0Z" fill="#E76F00"/>
<path d="M12.2145 29.9057C17.6171 30.2515 25.9135 29.7138 26.11 27.1574C26.11 27.1574 25.7323 28.1265 21.645 28.8962C17.0337 29.764 11.3464 29.6626 7.97314 29.1065C7.97323 29.1064 8.66369 29.678 12.2145 29.9057Z" fill="#5382A1"/>
</g>
<defs>
<clipPath id="clip0_10_364">
<rect width="30" height="30" fill="white"/>
</clipPath>
</defs>
</svg>
