<svg width="30" height="30" viewBox="0 0 30 30" fill="none" xmlns="http://www.w3.org/2000/svg">
<path d="M0 4C0 2.59987 0 1.8998 0.272484 1.36502C0.512167 0.894619 0.894619 0.512167 1.36502 0.272484C1.8998 0 2.59987 0 4 0H26C27.4001 0 28.1002 0 28.635 0.272484C29.1054 0.512167 29.4878 0.894619 29.7275 1.36502C30 1.8998 30 2.59987 30 4V26C30 27.4001 30 28.1002 29.7275 28.635C29.4878 29.1054 29.1054 29.4878 28.635 29.7275C28.1002 30 27.4001 30 26 30H4C2.59987 30 1.8998 30 1.36502 29.7275C0.894619 29.4878 0.512167 29.1054 0.272484 28.635C0 28.1002 0 27.4001 0 26V4Z" fill="url(#paint0_linear_145_134)"/>
<path d="M9.34894 23.8282V11.4615H5.24207V23.8282H9.34937H9.34894ZM7.29636 9.77329C8.72821 9.77329 9.61963 8.82367 9.61963 7.63691C9.59283 6.42312 8.72821 5.5 7.32359 5.5C5.91801 5.5 5 6.42312 5 7.63681C5 8.82356 5.8911 9.77318 7.26945 9.77318H7.29604L7.29636 9.77329ZM11.6221 23.8282H15.7287V16.9228C15.7287 16.5537 15.7555 16.1836 15.864 15.92C16.1607 15.1812 16.8364 14.4165 17.9712 14.4165C19.4569 14.4165 20.0516 15.5504 20.0516 17.2131V23.8282H24.158V16.7375C24.158 12.9391 22.1322 11.1715 19.4303 11.1715C17.2151 11.1715 16.2422 12.4108 15.7017 13.2548H15.729V11.4619H11.6224C11.676 12.622 11.622 23.8286 11.622 23.8286L11.6221 23.8282Z" fill="white"/>
<defs>
<linearGradient id="paint0_linear_145_134" x1="17.0734" y1="30.8947" x2="3.04882" y2="-6.42434e-07" gradientUnits="userSpaceOnUse">
<stop stop-color="#006699"/>
<stop offset="1" stop-color="#058CCF"/>
</linearGradient>
</defs>
</svg>
