<svg width="30" height="30" viewBox="0 0 30 30" fill="none" xmlns="http://www.w3.org/2000/svg">
<g clip-path="url(#clip0_12_165)">
<path d="M23.4567 23.3693C24.4921 22.9314 25.7265 22.772 27.3194 22.8117C27.2746 22.5137 26.7054 22.1597 26.2884 21.9004C26.1484 21.8133 26.0256 21.7369 25.9455 21.6769C25.3083 21.219 24.6313 20.741 23.9544 20.323C23.7364 20.1898 23.4224 20.0786 23.1203 19.9716C22.9259 19.9028 22.7365 19.8357 22.5806 19.7655C22.4213 19.7006 22.2044 19.6357 21.9701 19.5656C21.4138 19.3992 20.76 19.2035 20.5497 18.9094C20.0083 18.2056 19.6305 17.3545 19.2532 16.5046C19.2142 16.4168 19.1752 16.329 19.1361 16.2414C18.9386 15.7899 18.7189 15.3296 18.4979 14.8666C18.2512 14.3496 18.0029 13.8293 17.7822 13.3145C17.6861 13.1048 17.613 12.9066 17.541 12.7115C17.449 12.462 17.3588 12.2175 17.2247 11.9606C15.7712 9.15328 13.621 6.80375 11.0127 5.15121C10.1564 4.6136 9.20085 4.11571 8.14549 3.77734C7.82322 3.68069 7.46619 3.66514 7.10565 3.64943C6.79794 3.63602 6.48768 3.6225 6.19429 3.55837H5.7761C5.53469 3.49131 5.32037 3.29773 5.12101 3.11765C5.02442 3.03041 4.93135 2.94634 4.84041 2.88137C4.22311 2.4633 3.60593 2.18437 2.86922 1.88584C2.61041 1.76643 1.8737 1.48763 1.61489 1.70672C1.45551 1.74657 1.37594 1.80628 1.33609 1.96553C1.17684 2.20449 1.31636 2.56285 1.41579 2.78181C1.61314 3.20284 1.86269 3.51087 2.1184 3.82651C2.24967 3.98853 2.38257 4.15257 2.51087 4.33493C2.57214 4.42142 2.63603 4.50987 2.70099 4.5998C2.99486 5.00666 3.31069 5.44391 3.50639 5.86794C3.78253 6.46281 3.97936 7.09167 4.17548 7.71823C4.34697 8.26613 4.51791 8.81228 4.74086 9.33241C4.91998 9.7506 5.19877 10.2284 5.45759 10.6067C5.53876 10.7174 5.64458 10.8172 5.7517 10.9182C5.93355 11.0896 6.11915 11.2646 6.1943 11.5027C6.38793 11.8254 6.03244 12.7494 5.81645 13.3109C5.76589 13.4423 5.72298 13.5538 5.69654 13.6331C5.17879 15.2657 5.27834 17.5355 5.87565 18.9491C5.897 18.999 5.91819 19.0496 5.93954 19.1005C6.15709 19.6201 6.39061 20.1779 6.97073 20.323C6.98878 20.305 6.99051 20.2992 6.99438 20.2964C6.99907 20.2931 7.00689 20.2941 7.05043 20.2832C7.07956 20.0543 7.10435 19.8272 7.12879 19.6032C7.2213 18.7557 7.30882 17.9539 7.6079 17.2767C7.7504 16.9271 7.98549 16.6448 8.21461 16.3696C8.33775 16.2217 8.45917 16.0759 8.56357 15.9228C8.68993 15.9986 8.7361 16.1706 8.78352 16.3473C8.81082 16.449 8.83854 16.5522 8.88221 16.6396C8.90101 16.6844 8.91991 16.7295 8.93893 16.7749C9.18173 17.3548 9.44296 17.9786 9.73834 18.5509C10.3954 19.8252 11.1322 21.0596 11.9683 22.1747C12.247 22.5729 12.6453 23.0109 13.0037 23.3693C13.0582 23.417 13.115 23.4577 13.171 23.4978C13.2786 23.5748 13.383 23.6496 13.4616 23.7675H13.5015V23.8273C13.1235 23.6887 12.8332 23.3905 12.5498 23.0995C12.3855 22.9307 12.2234 22.7642 12.0479 22.6327C11.1519 21.9557 10.0768 20.9402 9.45954 19.9646C9.26512 19.5459 9.05949 19.1383 8.85102 18.7251C8.78198 18.5883 8.71263 18.4508 8.64326 18.3121C8.64326 18.3121 8.64337 18.2921 8.64326 18.2723C8.56718 18.3737 8.55575 18.4752 8.54199 18.5972C8.53416 18.6668 8.52557 18.743 8.50387 18.8297C8.43007 19.1136 8.3935 19.4088 8.35816 19.6941C8.26956 20.4093 8.18868 21.0624 7.54819 21.3185C6.5328 21.7367 5.7761 20.6414 5.45759 20.1438C4.4422 18.4912 4.16341 15.7038 4.88013 13.4539C4.93558 13.2807 4.97416 13.0955 5.01263 12.9108C5.08473 12.5646 5.15645 12.2203 5.33818 11.9606C5.29823 11.7213 5.16072 11.5974 5.02633 11.4763C4.95945 11.416 4.89334 11.3564 4.84041 11.2836C4.56162 10.9054 4.32279 10.4673 4.1037 10.0493C3.78536 9.42778 3.53635 8.71394 3.29503 8.02213C3.21935 7.80515 3.14441 7.59033 3.06833 7.38121C3.00037 7.20649 2.9561 7.03171 2.91242 6.85926C2.86651 6.678 2.82125 6.49932 2.74982 6.32598C2.5616 5.91816 2.24993 5.51042 1.96058 5.13187C1.88258 5.02983 1.80621 4.92992 1.73431 4.83269C1.65674 4.72138 1.55404 4.59236 1.43956 4.44855C0.878167 3.74331 0.0334331 2.68214 0.479978 1.60717C1.31624 -0.443581 4.24323 1.10929 5.3779 1.82614C5.49137 1.89909 5.61144 2.005 5.73541 2.11435C5.91605 2.27369 6.10497 2.44034 6.29386 2.523C6.54279 2.533 6.79175 2.54793 7.0407 2.56286C7.28955 2.57778 7.53838 2.59271 7.78715 2.6027C7.86866 2.62177 7.94972 2.64054 8.03027 2.65919C8.87451 2.8547 9.66312 3.03732 10.3357 3.41897C13.7603 5.43001 15.9903 7.48076 18.041 10.8655C18.3194 11.3211 18.5094 11.8007 18.7029 12.2892C18.8138 12.5694 18.9259 12.8524 19.0564 13.1354C19.5542 14.2902 20.1119 15.5045 20.6891 16.5997C20.7617 16.7449 20.8295 16.8948 20.8976 17.0449C21.0721 17.4303 21.2475 17.8176 21.5055 18.1329C21.5982 18.2654 21.8057 18.3361 22.0045 18.4039C22.1044 18.4379 22.2021 18.4712 22.2819 18.5112C22.5394 18.6438 22.8184 18.7643 23.0996 18.8856C23.5357 19.074 23.9773 19.2646 24.3527 19.5067C25.5074 20.2235 26.6225 21.0795 27.6379 21.9557C27.8432 22.1393 28.0133 22.364 28.1832 22.5883C28.3264 22.7775 28.4695 22.9665 28.6334 23.1305V23.3096C28.3149 23.4091 27.9963 23.5087 27.6777 23.5884C27.3312 23.6775 27.0043 23.7124 26.68 23.747C26.3522 23.7821 26.027 23.8168 25.6867 23.9069C25.6438 23.9192 25.5998 23.9318 25.555 23.9448C25.1631 24.0579 24.7059 24.1898 24.3128 24.2255C24.3327 24.2454 24.3527 24.2653 24.3527 24.2653C24.5446 24.8115 25.3606 25.2812 26.0293 25.6661C26.2625 25.8002 26.4777 25.9241 26.6424 26.0373C27.4189 26.5948 28.1357 27.2718 28.7131 28.0482C28.8124 28.1475 28.9117 28.2418 29.0109 28.3361C29.1108 28.431 29.2106 28.5259 29.3104 28.6257C29.3778 28.7221 29.422 28.8325 29.4654 28.9411C29.5116 29.0568 29.557 29.1704 29.6289 29.2629V29.3226C29.4547 29.2604 29.335 29.1359 29.2162 29.0125C29.1449 28.9384 29.074 28.8646 28.9918 28.8049C28.8042 28.6771 28.6168 28.5382 28.4293 28.3994C28.1788 28.2139 27.9283 28.0284 27.6777 27.8691C27.2925 27.6258 26.8762 27.4341 26.4579 27.2414C26.0547 27.0558 25.6496 26.8692 25.2685 26.6347C24.8306 26.3559 24.4124 26.0373 23.9943 25.7188C23.6159 25.44 23.198 24.9023 22.9589 24.5042C22.8987 24.4096 22.8608 24.3075 22.8242 24.2092C22.7763 24.0801 22.7308 23.9575 22.6403 23.867C22.6701 23.5842 22.9449 23.5128 23.2065 23.4448C23.2947 23.4219 23.3814 23.3994 23.4567 23.3693Z" fill="#00546B"/>
<path d="M6.1942 5.60912C6.43316 5.54942 6.67198 5.50944 7.01048 5.50944C7.07359 5.5726 7.15234 5.62634 7.23186 5.6806C7.35303 5.76329 7.47599 5.84719 7.54809 5.96748C7.59232 6.02942 7.62082 6.09135 7.64932 6.15328C7.68496 6.23075 7.72061 6.30821 7.78704 6.38568C7.78704 6.86346 7.64777 7.18197 7.36885 7.3812C7.36885 7.3812 7.34899 7.40106 7.32913 7.42105C7.24955 7.26196 7.17499 7.10287 7.10043 6.9438C7.02566 6.78426 6.95089 6.62474 6.87108 6.46525C6.79355 6.35673 6.70398 6.25725 6.61408 6.15742C6.47312 6.00087 6.33137 5.84346 6.23405 5.64897H6.1942V5.60912Z" fill="#00546B"/>
</g>
<defs>
<clipPath id="clip0_12_165">
<rect width="30" height="30" fill="white"/>
</clipPath>
</defs>
</svg>
