<svg width="30" height="30" viewBox="0 0 30 30" fill="none" xmlns="http://www.w3.org/2000/svg">
<path d="M3.11578 21.8515L14.9826 28.703L26.85 21.8515V8.14882L14.9826 1.29755L3.11578 8.14882V21.8515ZM14.9826 30L1.99219 22.4999V7.5003L14.9826 0L27.9736 7.5003V22.4999L14.9826 30Z" fill="#A1070C"/>
<path d="M2.96423 8.06123L14.9828 1.12237L27.0013 8.06123V21.9391L14.9828 28.8779L2.96423 21.9391V8.06123Z" fill="url(#paint0_linear_10_267)"/>
<path d="M20.4971 9.9226C20.4971 10.4677 20.3895 11.0093 20.1743 11.5473C19.9591 12.0852 19.6704 12.5837 19.3082 13.0428C18.946 13.5019 18.5281 13.9036 18.0547 14.2479C17.5813 14.5922 17.09 14.8396 16.5807 14.9903L16.3547 14.6137C16.656 14.4631 16.9322 14.2694 17.1832 14.0327C17.4343 13.796 17.6495 13.5288 17.8288 13.2311C18.0081 12.9334 18.1462 12.6178 18.243 12.2843C18.3398 11.9507 18.3883 11.6118 18.3883 11.2675C18.3883 10.873 18.3309 10.5 18.2161 10.1485C18.1013 9.79707 17.9328 9.49043 17.7104 9.22862C17.4881 8.96681 17.2137 8.76059 16.8873 8.60996C16.561 8.45933 16.1862 8.38401 15.763 8.38401C15.2465 8.38401 14.7731 8.48443 14.3427 8.68527C13.9124 8.88612 13.525 9.15689 13.1807 9.49761C12.8364 9.83832 12.537 10.2292 12.2823 10.6704C12.0277 11.1115 11.8161 11.5742 11.6475 12.0583C11.479 12.5425 11.3516 13.0321 11.2656 13.527C11.1795 14.0219 11.1365 14.4882 11.1365 14.9257C11.1365 15.3704 11.1831 15.8295 11.2763 16.3029C11.3696 16.7763 11.5059 17.2426 11.6852 17.7016C11.8645 18.1607 12.0869 18.5946 12.3523 19.0035C12.6177 19.4124 12.9243 19.771 13.2722 20.0794C13.6201 20.3879 14.0074 20.6336 14.4342 20.8165C14.861 20.9994 15.3254 21.0908 15.8275 21.0908C16.1718 21.0908 16.5072 21.0442 16.8335 20.951C17.1599 20.8577 17.4737 20.7322 17.775 20.5744C18.0762 20.4166 18.3614 20.2301 18.6304 20.0149C18.8993 19.7997 19.1486 19.5666 19.3781 19.3155L19.7332 19.6598C19.4176 20.0759 19.0428 20.4757 18.6088 20.8595C18.1749 21.2433 17.7068 21.584 17.2047 21.8816C16.7026 22.1793 16.1772 22.416 15.6285 22.5918C15.0798 22.7675 14.5364 22.8554 13.9984 22.8554C13.4748 22.8554 12.9817 22.7639 12.519 22.581C12.0564 22.3981 11.6314 22.1506 11.244 21.8386C10.8567 21.5266 10.5106 21.1608 10.2058 20.7411C9.90092 20.3215 9.64269 19.875 9.43109 19.4016C9.21949 18.9282 9.0581 18.4404 8.94692 17.9383C8.83574 17.4362 8.78015 16.9449 8.78015 16.4643C8.78015 15.7685 8.89671 15.053 9.12983 14.3178C9.36295 13.5826 9.68394 12.8689 10.0928 12.1767C10.5017 11.4845 10.984 10.83 11.5399 10.2131C12.0958 9.59623 12.6948 9.05827 13.3367 8.5992C13.9787 8.14013 14.6494 7.77611 15.3487 7.50712C16.0481 7.23814 16.7457 7.10365 17.4414 7.10365C17.8718 7.10365 18.2735 7.16641 18.6465 7.29194C19.0195 7.41746 19.3423 7.59858 19.6148 7.83528C19.8874 8.07199 20.1026 8.36608 20.2604 8.71755C20.4182 9.06903 20.4971 9.4707 20.4971 9.9226Z" fill="#A1070C"/>
<defs>
<linearGradient id="paint0_linear_10_267" x1="14.9828" y1="13.6753" x2="14.9828" y2="28.8779" gradientUnits="userSpaceOnUse">
<stop stop-color="#F7F6F3"/>
<stop offset="1" stop-color="#FEF6D5"/>
</linearGradient>
</defs>
</svg>
