<svg width="30" height="30" viewBox="0 0 30 30" fill="none" xmlns="http://www.w3.org/2000/svg">
<path d="M23.3853 8.43733L24.0327 8.90606C25.1586 9.81423 25.806 10.8396 25.9467 12.0114C27.1571 11.777 28.7052 11.9528 29.3808 12.4215L30 12.8024L29.8874 13.0368C29.6904 13.4762 29.6341 13.5934 29.6059 13.652C28.5082 15.8491 26.3408 15.8784 25.3275 15.8491C22.766 22.2649 17.3054 25.8097 9.93071 25.8097C6.52484 25.8097 3.93526 24.7257 2.1901 22.5871C-0.118004 19.7748 -0.118004 16.1128 0.0790293 14.941L0.135325 14.7066H20.4861C21.5557 14.7066 22.372 14.4137 22.766 14.1793C22.3438 13.5348 22.2031 12.8024 22.1749 12.3922C22.0905 11.2204 22.372 9.99 22.9349 9.11113L23.3853 8.43733ZM5.42709 11.1911V14.1207H2.33084V11.1911H5.42709ZM9.08628 11.1911V14.1207H5.99004V11.1911H9.08628ZM12.7455 11.1911V14.1207H9.64924V11.1911H12.7455ZM16.4047 11.1911V14.1207H13.3084V11.1911H16.4047ZM20.0639 11.1911V14.1207H16.9676V11.1911H20.0639ZM16.4047 7.67564V10.6052H13.3084V7.67564H16.4047ZM12.7455 7.67564V10.6052H9.64924V7.67564H12.7455ZM9.08628 7.67564V10.6052H5.99004V7.67564H9.08628ZM16.4047 4.16016V7.08973H13.3084V4.16016H16.4047Z" fill="#2396ED"/>
</svg>
