<svg width="30" height="30" viewBox="0 0 30 30" fill="none" xmlns="http://www.w3.org/2000/svg">
<path fill-rule="evenodd" clip-rule="evenodd" d="M4.16515 27.0011L1.75781 0H28.2103L25.8004 26.9969L14.9679 30L4.16515 27.0011Z" fill="#E44D26"/>
<path fill-rule="evenodd" clip-rule="evenodd" d="M14.984 27.7045L23.7372 25.2778L25.7966 2.20773H14.984V27.7045Z" fill="#F16529"/>
<path d="M10.602 12.2221H14.984V15.5336H7.57336L6.68018 5.51935H14.984V8.83096H10.2993L10.602 12.2221Z" fill="#EBEBEB"/>
<path d="M14.9695 20.8264L14.984 20.8226V24.268L14.9688 24.2722L8.18528 22.3891L7.72133 17.1894H11.0456L11.2814 19.8306L14.9695 20.8264Z" fill="#EBEBEB"/>
<path d="M14.9727 5.51935H23.2682L22.9717 8.83096H14.9727V5.51935Z" fill="white"/>
<path d="M14.9727 15.5336V12.2221H22.6704L22.5896 13.1113L21.7616 22.3891L14.9727 24.2706V20.8253L18.6661 19.8285L19.0505 15.5336H14.9727Z" fill="white"/>
</svg>
