<svg width="30" height="30" viewBox="0 0 30 30" fill="none" xmlns="http://www.w3.org/2000/svg">
<g clip-path="url(#clip0_10_5)">
<path fill-rule="evenodd" clip-rule="evenodd" d="M0.351562 0.351562H29.6484V29.6484H0.351562V0.351562Z" fill="#F7DF1E"/>
<path fill-rule="evenodd" clip-rule="evenodd" d="M8.05473 24.8342L10.2967 23.4774C10.7293 24.2442 11.1227 24.8931 12.0665 24.8931C12.9712 24.8931 13.5415 24.5392 13.5415 23.1627V13.8017H16.2947V23.2016C16.2947 26.0532 14.6232 27.3511 12.1845 27.3511C9.9821 27.3511 8.70364 26.2105 8.05469 24.8339" fill="black"/>
<path fill-rule="evenodd" clip-rule="evenodd" d="M17.7902 24.5392L20.0319 23.2412C20.622 24.2049 21.389 24.9129 22.7458 24.9129C23.8866 24.9129 24.6141 24.3425 24.6141 23.5559C24.6141 22.6119 23.8668 22.2775 22.6081 21.7271L21.92 21.4319C19.9337 20.5864 18.616 19.5245 18.616 17.2825C18.616 15.2176 20.1892 13.6443 22.6476 13.6443C24.3979 13.6443 25.6565 14.254 26.561 15.8469L24.4174 17.2235C23.9454 16.3779 23.4342 16.0436 22.6476 16.0436C21.8413 16.0436 21.33 16.5549 21.33 17.2235C21.33 18.0494 21.8413 18.3838 23.0211 18.8952L23.7094 19.1902C26.0496 20.1932 27.3673 21.2157 27.3673 23.5165C27.3673 25.9946 25.4204 27.3514 22.8049 27.3514C20.2484 27.3514 18.5964 26.1322 17.7902 24.5392" fill="black"/>
</g>
<defs>
<clipPath id="clip0_10_5">
<rect width="30" height="30" fill="white"/>
</clipPath>
</defs>
</svg>
