<svg width="30" height="30" viewBox="0 0 30 30" fill="none" xmlns="http://www.w3.org/2000/svg">
<g clip-path="url(#clip0_158_402)">
<path d="M25.8225 11.1757C26.8902 10.9484 29.3085 9.12903 29.7285 8.16579C26.2513 10.5321 24.0404 9.86857 22.9257 9.53404C22.8782 9.5198 22.8327 9.50615 22.7892 9.49336C22.5547 9.42619 22.0118 9.18243 21.5059 8.87839C21.4708 8.85732 21.4363 8.8366 21.4024 8.81621C20.3475 8.18292 19.8005 7.8545 18.953 6.62232C18.4724 5.92413 17.9921 4.81445 17.8345 4.17851C17.5743 3.12714 17.6464 1.50962 18.1408 0.117188C16.4997 1.5817 16.2468 4.4108 16.7969 6.28125C16.8666 6.51813 17.2565 7.44861 17.4675 7.78967C18.8858 10.0713 21.594 12.0764 25.8225 11.1757Z" fill="#21609B"/>
<path d="M22.8055 17.537C25.5072 17.5557 28.3291 16.293 30 14.5202C28.5381 18.2313 24.3051 20.6168 18.6282 19.858C13.8753 19.2221 9.3474 14.439 8.88085 9.64636C8.53979 6.15839 9.75563 4.07662 11.7588 1.55156C11.0626 2.87224 10.8024 3.89085 10.7375 4.54054C9.97645 12.0856 16.7647 17.4977 22.8055 17.537Z" fill="#21609B"/>
<path d="M29.3038 22.1789L29.1694 22.5269C26.8809 26.9827 22.8265 29.7167 17.0431 29.8373C14.3395 29.893 11.7633 29.1994 10.0806 28.4449C6.44883 26.8133 3.39432 23.7873 1.72601 20.5542C-0.667009 15.9195 -1.0985 9.47237 3.87724 4.65683C3.91558 4.65683 3.7647 4.91788 3.61383 5.17892C3.46295 5.43996 3.31208 5.701 3.35041 5.701L3.21346 6.14658C-0.37214 17.3722 10.6746 26.9922 21.4131 25.892C23.9938 25.6276 27.2849 24.2142 29.3038 22.1789Z" fill="#21609B"/>
</g>
<defs>
<clipPath id="clip0_158_402">
<rect width="30" height="30" fill="white"/>
</clipPath>
</defs>
</svg>
