<svg width="30" height="28" viewBox="0 0 30 28" fill="none" xmlns="http://www.w3.org/2000/svg">
<g filter="url(#filter0_d_163_394)">
<path d="M25.2857 17.7586C25.5437 17.6105 25.7031 17.3361 25.704 17.0386L25.719 12.216C25.72 11.9185 25.8794 11.6441 26.1374 11.496L28.7516 9.99424C29.0095 9.84616 29.3267 9.84669 29.5841 9.99565C29.8415 10.1446 30 10.4194 30 10.7168V19.4845C30 19.7829 29.8404 20.0584 29.5817 20.207L19.7155 25.8739C19.4591 26.0211 19.1439 26.0214 18.8872 25.8747L11.1445 21.4462C10.8848 21.2979 10.7246 21.0219 10.7245 20.7229V16.3019C10.7245 16.2969 10.7303 16.2936 10.7353 16.2961C10.7395 16.2986 10.7453 16.2961 10.7453 16.2903V16.2853C10.7453 16.2819 10.747 16.2786 10.7503 16.2769L17.1271 12.6135C17.133 12.6102 17.1305 12.601 17.1238 12.601C17.1201 12.601 17.1171 12.598 17.1171 12.5943L17.1296 8.26003C17.1308 7.96171 16.9725 7.68551 16.7144 7.53583C16.4563 7.38616 16.138 7.38585 15.8796 7.53501L11.1403 10.2659C10.8829 10.4141 10.566 10.4141 10.3086 10.2659L5.55432 7.52834C5.29654 7.37991 4.97917 7.38013 4.7216 7.52894C4.46403 7.67774 4.3053 7.95256 4.30512 8.25003V16.0836C4.30532 16.3807 4.14729 16.6555 3.89035 16.8047C3.63341 16.954 3.31644 16.9552 3.05842 16.8078L0.420014 15.2994C0.159861 15.1508 -0.00049999 14.874 1.17124e-06 14.5744L0.0233363 0.882325C0.0239826 0.585263 0.182712 0.311005 0.439966 0.162457C0.69722 0.0139088 1.0141 0.0135334 1.2717 0.161471L10.3095 5.35245C10.5664 5.50003 10.8825 5.50003 11.1395 5.35245L20.1747 0.161471C20.4327 0.0133119 20.7501 0.0139265 21.0075 0.163084C21.265 0.312241 21.4233 0.587316 21.4231 0.884825V14.5802C21.4232 14.8784 21.264 15.1539 21.0056 15.3027L16.2738 18.0278C16.0151 18.1769 15.8559 18.4531 15.8566 18.7517C15.8573 19.0503 16.0177 19.3257 16.2771 19.4737L18.8872 20.9595C19.1438 21.1057 19.4587 21.105 19.7147 20.9579L25.2857 17.7586ZM25.8332 5.47329C25.8335 5.77332 25.995 6.05006 26.2561 6.19786C26.5172 6.34565 26.8376 6.34169 27.0949 6.18747L29.595 4.68743C29.846 4.537 29.9998 4.26591 30 3.97324V0.916492C29.9995 0.61661 29.8378 0.340141 29.5768 0.192548C29.3158 0.0449542 28.9955 0.048999 28.7383 0.203139L26.2382 1.70318C25.9872 1.85361 25.8334 2.1247 25.8332 2.41737V5.47412V5.47329Z" fill="#007FFF"/>
</g>
<defs>
<filter id="filter0_d_163_394" x="-2" y="0.0507812" width="34" height="29.9337" filterUnits="userSpaceOnUse" color-interpolation-filters="sRGB">
<feFlood flood-opacity="0" result="BackgroundImageFix"/>
<feColorMatrix in="SourceAlpha" type="matrix" values="0 0 0 0 0 0 0 0 0 0 0 0 0 0 0 0 0 0 127 0" result="hardAlpha"/>
<feOffset dy="2"/>
<feGaussianBlur stdDeviation="1"/>
<feComposite in2="hardAlpha" operator="out"/>
<feColorMatrix type="matrix" values="0 0 0 0 0 0 0 0 0 0 0 0 0 0 0 0 0 0 0.25 0"/>
<feBlend mode="normal" in2="BackgroundImageFix" result="effect1_dropShadow_163_394"/>
<feBlend mode="normal" in="SourceGraphic" in2="effect1_dropShadow_163_394" result="shape"/>
</filter>
</defs>
</svg>
