<svg width="30" height="30" viewBox="0 0 30 30" fill="none" xmlns="http://www.w3.org/2000/svg">
<g clip-path="url(#clip0_162_386)">
<path d="M26.5202 22.4979L15.7662 28.7114C15.3032 28.9802 14.7356 28.9802 14.2726 28.7114L3.51855 22.4979C3.05553 22.229 2.77173 21.7362 2.77173 21.2134V8.78646C2.77173 8.24881 3.05553 7.77086 3.51855 7.50199L14.2726 1.2885C14.7356 1.01972 15.3032 1.01972 15.7662 1.2885L26.5202 7.50199C26.9833 7.77086 27.2671 8.26374 27.2671 8.78646V21.2134C27.2521 21.7362 26.9683 22.229 26.5202 22.4979Z" fill="#8D6748"/>
<path d="M15.0045 2.97632C14.7805 2.97632 14.5564 3.03603 14.3623 3.15554L5.07192 8.51762C4.66861 8.74172 4.42969 9.17479 4.42969 9.62288V20.3471C4.42969 20.8101 4.66861 21.2283 5.07192 21.4524L14.3623 26.8145C14.5564 26.934 14.7805 26.9937 15.0045 26.9937C15.2285 26.9937 15.4526 26.934 15.6467 26.8145L24.9371 21.4524C25.3404 21.2283 25.5793 20.7951 25.5793 20.3472V9.62288C25.5793 9.15986 25.3404 8.74172 24.9371 8.51762L15.6467 3.15554C15.4526 3.03603 15.2285 2.97632 15.0045 2.97632ZM15.0045 3.42441C15.1539 3.42441 15.2883 3.46919 15.4227 3.54392L24.713 8.90601C24.9669 9.05537 25.1312 9.33917 25.1312 9.6379V20.3621C25.1312 20.6608 24.9669 20.9445 24.713 21.0939L15.4227 26.456C15.2883 26.5307 15.1539 26.5755 15.0045 26.5755C14.8551 26.5755 14.7058 26.5307 14.5863 26.456L5.29602 21.0939C5.04207 20.9445 4.87778 20.6608 4.87778 20.3621V9.6379C4.87778 9.33917 5.04207 9.05537 5.29602 8.90601L14.5863 3.54392C14.7207 3.46919 14.8701 3.42441 15.0045 3.42441ZM14.1456 12.7745H15.4003C15.4451 12.7745 15.475 12.7595 15.5048 12.7296C16.2517 11.8932 16.3264 10.1456 16.3264 9.62292C16.3264 9.54828 16.2666 9.47355 16.177 9.47355H14.773H13.369C13.2943 9.47355 13.2196 9.53326 13.2196 9.62292C13.2196 10.1307 13.2943 11.8783 14.0412 12.7296C14.071 12.7595 14.1009 12.7745 14.1456 12.7745ZM13.8021 9.93657H14.7879H15.7737C15.8484 9.93657 15.9231 9.99628 15.9231 10.0859C15.9231 10.5042 15.8484 11.6841 15.3406 12.2965C15.2958 12.3264 15.2659 12.3413 15.221 12.3413H14.3399C14.295 12.3413 14.2652 12.3264 14.2353 12.2965C13.7274 11.6991 13.6677 10.5042 13.6528 10.0859C13.6528 10.0113 13.7125 9.93657 13.8021 9.93657ZM15.0568 9.17484C15.0568 9.17484 15.5945 8.86118 15.2658 8.29358C15.0717 7.99485 14.9821 7.741 15.0568 7.63641C14.8626 7.87543 14.534 8.12929 14.8925 8.66704C15.012 8.80147 15.0717 9.08518 15.0568 9.17484ZM14.4593 9.21964C14.4593 9.21964 14.8178 9.01056 14.5938 8.62218C14.4593 8.42803 14.3996 8.24882 14.4593 8.18901C14.3249 8.3533 14.1158 8.5176 14.3548 8.89105C14.4295 8.96569 14.4593 9.15993 14.4593 9.21964ZM14.4145 12.1621H15.1613C15.1912 12.1621 15.2211 12.1471 15.2509 12.1173C15.5049 11.8186 15.6244 11.3555 15.6841 10.9522C15.6841 10.9522 15.6691 11.0867 15.3107 11.2211C14.8178 11.4003 13.9515 11.2808 13.9515 11.2808C14.0261 11.5945 14.1457 11.8932 14.3249 12.1173C14.3398 12.1471 14.3847 12.1621 14.4145 12.1621ZM8.79852 16.3591V13.372H8.24584L7.33473 14.7759L6.42362 13.372H5.87104V16.3741H6.39376V14.2382L7.3198 15.6272H7.33473L8.27579 14.2233V16.3591H8.79852ZM12.1443 13.4317C11.95 13.357 11.7409 13.3122 11.5169 13.3122C11.2929 13.3122 11.0838 13.342 10.8895 13.4317C10.6954 13.5063 10.5311 13.6258 10.3967 13.7603C10.2473 13.9096 10.1428 14.0739 10.0681 14.2532C9.99345 14.4473 9.94857 14.6414 9.94857 14.8506V14.8655C9.94857 15.0746 9.99345 15.2838 10.0681 15.463C10.1428 15.6571 10.2473 15.8214 10.3817 15.9559C10.5162 16.0903 10.6805 16.2098 10.8746 16.2844C11.0689 16.3592 11.2779 16.404 11.5019 16.404C11.726 16.404 11.9351 16.3741 12.1293 16.2844C12.3235 16.2098 12.4878 16.0903 12.6222 15.9559C12.7716 15.8065 12.8761 15.6422 12.9508 15.463C13.0254 15.2688 13.0703 15.0746 13.0703 14.8655V14.8506C13.0703 14.6414 13.0254 14.4324 12.9508 14.2532C12.8761 14.059 12.7716 13.8947 12.6371 13.7603C12.5027 13.6258 12.3384 13.5063 12.1443 13.4317ZM12.5027 14.8805C12.5027 15.0149 12.4728 15.1493 12.428 15.2838C12.3683 15.4032 12.3085 15.5227 12.2189 15.6124C12.1293 15.7019 12.0247 15.7766 11.9052 15.8364C11.7857 15.8962 11.6513 15.926 11.5019 15.926C11.3676 15.926 11.2182 15.8962 11.0987 15.8364C10.9792 15.7766 10.8746 15.7019 10.7851 15.6124C10.6954 15.5078 10.6208 15.4032 10.5759 15.2688C10.5311 15.1344 10.5013 15 10.5013 14.8506V14.8357C10.5013 14.7012 10.5311 14.5668 10.5759 14.4324C10.6357 14.3129 10.6954 14.1934 10.7851 14.1038C10.8746 14.0141 10.9792 13.9395 11.0987 13.8797C11.2182 13.82 11.3526 13.7901 11.5019 13.7901C11.6513 13.7901 11.7857 13.82 11.9052 13.8797C12.0247 13.9395 12.1293 14.0141 12.2189 14.1038C12.3085 14.2084 12.3832 14.3129 12.428 14.4473C12.4728 14.5817 12.5027 14.7162 12.5027 14.8655V14.8805ZM14.7132 14.4324C14.773 14.3129 14.8328 14.1933 14.9223 14.1038C15.012 14.0141 15.1166 13.9395 15.236 13.8797C15.3555 13.82 15.475 13.7901 15.6244 13.7901C15.8036 13.7901 15.9529 13.82 16.0874 13.8946C16.2218 13.9693 16.3413 14.059 16.4607 14.1635L16.8043 13.7752C16.7296 13.7005 16.655 13.6408 16.5802 13.581C16.5056 13.5213 16.416 13.4765 16.3264 13.4316C16.2218 13.4017 16.1322 13.3719 16.0126 13.342C15.8932 13.3271 15.7737 13.3122 15.6393 13.3122C15.4003 13.3122 15.2061 13.357 15.012 13.4316C14.8178 13.5063 14.6535 13.6258 14.5191 13.7603C14.3847 13.9096 14.2801 14.0739 14.2054 14.2532C14.1307 14.4324 14.0859 14.6414 14.0859 14.8506V14.8655C14.0859 15.0746 14.1307 15.2688 14.2054 15.463C14.2801 15.6571 14.3847 15.8214 14.5191 15.9559C14.6535 16.0903 14.8178 16.2098 14.997 16.2844C15.1763 16.3592 15.3704 16.404 15.5945 16.404C15.7289 16.404 15.8633 16.404 15.9977 16.3741C16.1023 16.3592 16.2218 16.3143 16.3114 16.2695C16.401 16.2247 16.4907 16.1799 16.5802 16.1052C16.6699 16.0305 16.7445 15.9708 16.8193 15.8811L16.4758 15.5376C16.3413 15.6571 16.2069 15.7468 16.0874 15.8214C15.9679 15.8962 15.8036 15.926 15.6244 15.926C15.4899 15.926 15.3555 15.8811 15.236 15.8364C15.1166 15.7916 15.012 15.7019 14.9223 15.6124C14.8328 15.5078 14.758 15.4032 14.7132 15.2688C14.6685 15.1344 14.6385 15 14.6385 14.8506V14.8357C14.6385 14.7012 14.6685 14.5668 14.7132 14.4324ZM17.8648 13.3719V16.3591H18.3875V15.1045H19.8214V16.3591H20.3442V13.3719H19.8214V14.6116H18.3875V13.3719H17.8648ZM23.6003 15.6422L23.899 16.3592H24.4516L23.1373 13.357H22.6592L21.3449 16.3592H21.8826L22.1962 15.6422H23.6003ZM22.8983 13.9843L23.4061 15.1792H22.3905L22.8983 13.9843ZM5.49764 17.4644H24.5412V17.3001H5.49764V17.4644ZM16.4458 11.6841C16.4458 11.7438 16.4309 11.7887 16.4309 11.8484H24.5413V11.6841H16.4458ZM13.1151 11.6841H5.49759V11.8484H13.13C13.13 11.7887 13.1151 11.7438 13.1151 11.6841Z" fill="white"/>
</g>
<rect x="0.0271739" y="0.0271739" width="29.9457" height="29.9457" rx="0.244565" stroke="#9747FF" stroke-width="0.0543478" stroke-dasharray="0.54 0.27"/>
<defs>
<clipPath id="clip0_162_386">
<rect width="27.8261" height="27.8261" fill="white" transform="translate(1.08691 1.08694)"/>
</clipPath>
</defs>
</svg>
