<svg width="30" height="30" viewBox="0 0 30 30" fill="none" xmlns="http://www.w3.org/2000/svg">
<path fill-rule="evenodd" clip-rule="evenodd" d="M14.8372 24.171C14.7355 24.171 14.6406 24.1439 14.5524 24.0964L13.6505 23.5607C13.5149 23.4861 13.5827 23.459 13.6234 23.4454C13.8065 23.3844 13.8404 23.3709 14.0302 23.2624C14.0506 23.2488 14.0777 23.2556 14.0981 23.2691L14.7897 23.6828C14.8169 23.6964 14.8508 23.6964 14.8711 23.6828L17.5768 22.1163C17.6039 22.1028 17.6175 22.0756 17.6175 22.0417V18.9156C17.6175 18.8817 17.6039 18.8546 17.5768 18.841L14.8711 17.2813C14.844 17.2678 14.8101 17.2678 14.7897 17.2813L12.084 18.841C12.0569 18.8546 12.0434 18.8885 12.0434 18.9156V22.0417C12.0434 22.0689 12.0569 22.1028 12.084 22.1163L12.8232 22.5435C13.2233 22.747 13.4742 22.5096 13.4742 22.2723V19.1869C13.4742 19.1462 13.5081 19.1055 13.5556 19.1055H13.9014C13.9421 19.1055 13.9828 19.1394 13.9828 19.1869V22.2723C13.9828 22.808 13.6912 23.1199 13.1826 23.1199C13.0266 23.1199 12.9046 23.1199 12.5587 22.9504L11.8467 22.5435C11.6704 22.4418 11.5619 22.252 11.5619 22.0485V18.9224C11.5619 18.719 11.6704 18.5291 11.8467 18.4274L14.5524 16.8609C14.7219 16.766 14.9525 16.766 15.122 16.8609L17.8277 18.4274C18.004 18.5291 18.1125 18.719 18.1125 18.9224V22.0485C18.1125 22.252 18.004 22.4418 17.8277 22.5435L15.122 24.11C15.0339 24.1507 14.9321 24.171 14.8372 24.171ZM15.6713 22.0214C14.4846 22.0214 14.2405 21.4789 14.2405 21.0178C14.2405 20.9771 14.2744 20.9364 14.3218 20.9364H14.6745C14.7151 20.9364 14.7491 20.9635 14.7491 21.0042C14.8033 21.3636 14.9593 21.5399 15.6781 21.5399C16.2477 21.5399 16.4918 21.4111 16.4918 21.1059C16.4918 20.9296 16.424 20.8008 15.5357 20.7126C14.7965 20.638 14.3354 20.4753 14.3354 19.8853C14.3354 19.336 14.7965 19.0105 15.5696 19.0105C16.4376 19.0105 16.8648 19.3089 16.919 19.9599C16.919 19.9803 16.9123 20.0006 16.8987 20.0209C16.8851 20.0345 16.8648 20.0481 16.8444 20.0481H16.4918C16.4579 20.0481 16.424 20.0209 16.4172 19.987C16.3359 19.6141 16.1256 19.492 15.5696 19.492C14.9457 19.492 14.8711 19.709 14.8711 19.8718C14.8711 20.0684 14.9593 20.1294 15.8001 20.2379C16.6342 20.3464 17.0275 20.5024 17.0275 21.0856C17.0208 21.6823 16.5325 22.0214 15.6713 22.0214Z" fill="#539E43"/>
<path fill-rule="evenodd" clip-rule="evenodd" d="M6.44213 11.9445C6.44213 11.8225 6.37432 11.7072 6.26582 11.6462L3.3906 9.99156C3.34313 9.96444 3.28888 9.95087 3.23463 9.94409H3.2075C3.15326 9.94409 3.09901 9.96444 3.05154 9.99156L0.176311 11.6462C0.0678119 11.7072 0 11.8225 0 11.9445L0.00678119 16.393C0.00678119 16.454 0.0406872 16.5151 0.0949367 16.5422C0.149186 16.5761 0.216998 16.5761 0.264467 16.5422L1.97333 15.5657C2.08183 15.5047 2.14964 15.3894 2.14964 15.2673V13.1855C2.14964 13.0634 2.21745 12.9482 2.32595 12.8871L3.05154 12.4667C3.10579 12.4328 3.16682 12.4192 3.22785 12.4192C3.28888 12.4192 3.34991 12.4328 3.39738 12.4667L4.12297 12.8871C4.23147 12.9482 4.29928 13.0634 4.29928 13.1855V15.2673C4.29928 15.3894 4.36709 15.5047 4.47559 15.5657L6.18445 16.5422C6.2387 16.5761 6.30651 16.5761 6.36076 16.5422C6.41501 16.5151 6.44892 16.454 6.44892 16.393L6.44213 11.9445Z" fill="#333333"/>
<path fill-rule="evenodd" clip-rule="evenodd" d="M20.2622 5.82112C20.2079 5.794 20.1401 5.794 20.0926 5.82112C20.0384 5.85503 20.0045 5.90928 20.0045 5.97031V10.3781C20.0045 10.4188 19.9841 10.4595 19.9434 10.4866C19.9028 10.5069 19.8621 10.5069 19.8214 10.4866L19.1026 10.0729C18.9941 10.0119 18.8652 10.0119 18.7567 10.0729L15.8815 11.7343C15.773 11.7954 15.7052 11.9106 15.7052 12.0327V15.3487C15.7052 15.4708 15.773 15.586 15.8815 15.6471L18.7567 17.3085C18.8652 17.3695 18.9941 17.3695 19.1026 17.3085L21.9778 15.6471C22.0863 15.586 22.1541 15.4708 22.1541 15.3487V7.08243C22.1541 6.95358 22.0863 6.8383 21.9778 6.77727L20.2622 5.82112ZM19.9977 14.2569C19.9977 14.2908 19.9841 14.318 19.957 14.3315L18.9737 14.9011C18.9466 14.9147 18.9127 14.9147 18.8856 14.9011L17.9023 14.3315C17.8752 14.318 17.8616 14.2841 17.8616 14.2569V13.1177C17.8616 13.0838 17.8752 13.0567 17.9023 13.0431L18.8856 12.4735C18.9127 12.4599 18.9466 12.4599 18.9737 12.4735L19.957 13.0431C19.9841 13.0567 19.9977 13.0906 19.9977 13.1177V14.2569Z" fill="#333333"/>
<path fill-rule="evenodd" clip-rule="evenodd" d="M29.8305 13.0906C29.939 13.0295 30 12.9143 30 12.7922V11.9852C30 11.8632 29.9322 11.7479 29.8305 11.6869L26.9756 10.0322C26.8671 9.97122 26.7383 9.97122 26.6298 10.0322L23.7546 11.6936C23.6461 11.7547 23.5782 11.8699 23.5782 11.992V15.308C23.5782 15.4301 23.6461 15.5454 23.7546 15.6064L26.6094 17.2339C26.7179 17.2949 26.8468 17.2949 26.9485 17.2339L28.6777 16.2709C28.732 16.2438 28.7659 16.1828 28.7659 16.1218C28.7659 16.0607 28.732 15.9997 28.6777 15.9726L25.7889 14.3112C25.7347 14.2773 25.7008 14.223 25.7008 14.162V13.1245C25.7008 13.0634 25.7347 13.0024 25.7889 12.9753L26.6908 12.4599C26.7451 12.426 26.8129 12.426 26.8671 12.4599L27.769 12.9753C27.8233 13.0092 27.8572 13.0634 27.8572 13.1245V13.9382C27.8572 13.9992 27.8911 14.0603 27.9453 14.0874C27.9996 14.1213 28.0674 14.1213 28.1216 14.0874L29.8305 13.0906Z" fill="#333333"/>
<path fill-rule="evenodd" clip-rule="evenodd" d="M26.7586 12.9346C26.7789 12.921 26.8061 12.921 26.8264 12.9346L27.3757 13.2533C27.396 13.2669 27.4096 13.2872 27.4096 13.3143V13.9518C27.4096 13.9789 27.396 13.9992 27.3757 14.0128L26.8264 14.3315C26.8061 14.3451 26.7789 14.3451 26.7586 14.3315L26.2093 14.0128C26.189 13.9992 26.1754 13.9789 26.1754 13.9518V13.3143C26.1754 13.2872 26.189 13.2669 26.2093 13.2533L26.7586 12.9346Z" fill="#539E43"/>
<path fill-rule="evenodd" clip-rule="evenodd" d="M11.25 10.0458C11.1415 9.98477 11.0127 9.98477 10.9042 10.0458L8.04929 11.6936C7.94079 11.7547 7.87976 11.8699 7.87976 11.992V15.2944C7.87976 15.4165 7.94757 15.5318 8.04929 15.5928L10.9042 17.2407C11.0127 17.3017 11.1415 17.3017 11.25 17.2407L14.1049 15.5928C14.2134 15.5318 14.2744 15.4165 14.2744 15.2944V11.992C14.2744 11.8699 14.2066 11.7547 14.1049 11.6936L11.25 10.0458Z" fill="white"/>
<path fill-rule="evenodd" clip-rule="evenodd" d="M11.25 10.0458C11.1415 9.98477 11.0127 9.98477 10.9042 10.0458L8.04929 11.6936C7.94079 11.7547 7.87976 11.8699 7.87976 11.992V15.2944C7.87976 15.4165 7.94757 15.5318 8.04929 15.5928L10.9042 17.2407C11.0127 17.3017 11.1415 17.3017 11.25 17.2407L14.1049 15.5928C14.2134 15.5318 14.2744 15.4165 14.2744 15.2944V11.992C14.2744 11.8699 14.2066 11.7547 14.1049 11.6936L11.25 10.0458Z" fill="url(#paint0_linear_10_178)"/>
<mask id="mask0_10_178" style="mask-type:alpha" maskUnits="userSpaceOnUse" x="7" y="10" width="8" height="8">
<path fill-rule="evenodd" clip-rule="evenodd" d="M11.25 10.0458C11.1415 9.98477 11.0127 9.98477 10.9042 10.0458L8.04929 11.6936C7.94079 11.7547 7.87976 11.8699 7.87976 11.992V15.2944C7.87976 15.4165 7.94757 15.5318 8.04929 15.5928L10.9042 17.2407C11.0127 17.3017 11.1415 17.3017 11.25 17.2407L14.1049 15.5928C14.2134 15.5318 14.2744 15.4165 14.2744 15.2944V11.992C14.2744 11.8699 14.2066 11.7547 14.1049 11.6936L11.25 10.0458Z" fill="white"/>
</mask>
<g mask="url(#mask0_10_178)">
<path fill-rule="evenodd" clip-rule="evenodd" d="M14.1117 11.6936L11.2432 10.0458C11.2161 10.0322 11.1822 10.0187 11.1551 10.0119L7.9408 15.5182C7.96792 15.5521 8.00183 15.5793 8.03573 15.5996L10.9042 17.2474C10.9856 17.2949 11.0805 17.3085 11.1686 17.2813L14.1863 11.7615C14.1659 11.7343 14.1388 11.714 14.1117 11.6936Z" fill="url(#paint1_linear_10_178)"/>
</g>
<mask id="mask1_10_178" style="mask-type:alpha" maskUnits="userSpaceOnUse" x="7" y="10" width="8" height="8">
<path fill-rule="evenodd" clip-rule="evenodd" d="M11.25 10.0458C11.1415 9.98477 11.0127 9.98477 10.9042 10.0458L8.04929 11.6936C7.94079 11.7547 7.87976 11.8699 7.87976 11.992V15.2944C7.87976 15.4165 7.94757 15.5318 8.04929 15.5928L10.9042 17.2407C11.0127 17.3017 11.1415 17.3017 11.25 17.2407L14.1049 15.5928C14.2134 15.5318 14.2744 15.4165 14.2744 15.2944V11.992C14.2744 11.8699 14.2066 11.7547 14.1049 11.6936L11.25 10.0458Z" fill="white"/>
</mask>
<g mask="url(#mask1_10_178)">
<path fill-rule="evenodd" clip-rule="evenodd" d="M14.1185 15.5928C14.1999 15.5454 14.2609 15.464 14.288 15.3758L11.1415 10.0051C11.0602 9.99156 10.972 9.99834 10.8974 10.0458L8.04932 11.6869L11.1212 17.2881C11.1619 17.2813 11.2094 17.2678 11.25 17.2474L14.1185 15.5928Z" fill="url(#paint2_linear_10_178)"/>
<path fill-rule="evenodd" clip-rule="evenodd" d="M14.1184 15.5928L11.2568 17.2407C11.2161 17.261 11.1754 17.2746 11.1279 17.2813L11.1822 17.3831L14.3558 15.5454V15.5047L14.2744 15.369C14.2608 15.464 14.1998 15.5454 14.1184 15.5928Z" fill="url(#paint3_linear_10_178)"/>
<path fill-rule="evenodd" clip-rule="evenodd" d="M14.1184 15.5928L11.2568 17.2407C11.2161 17.261 11.1754 17.2746 11.1279 17.2813L11.1822 17.3831L14.3558 15.5454V15.5047L14.2744 15.369C14.2608 15.464 14.1998 15.5454 14.1184 15.5928Z" fill="url(#paint4_linear_10_178)"/>
</g>
<defs>
<linearGradient id="paint0_linear_10_178" x1="10.4605" y1="10.348" x2="7.4216" y2="14.0256" gradientUnits="userSpaceOnUse">
<stop stop-color="#41873F"/>
<stop offset="0.3288" stop-color="#418B3D"/>
<stop offset="0.6352" stop-color="#419637"/>
<stop offset="0.9319" stop-color="#3FA92D"/>
<stop offset="1" stop-color="#3FAE2A"/>
</linearGradient>
<linearGradient id="paint1_linear_10_178" x1="12.3308" y1="18.1535" x2="19.9324" y2="15.1167" gradientUnits="userSpaceOnUse">
<stop offset="0.1376" stop-color="#41873F"/>
<stop offset="0.4032" stop-color="#54A044"/>
<stop offset="0.7136" stop-color="#66B848"/>
<stop offset="0.9081" stop-color="#6CC04A"/>
</linearGradient>
<linearGradient id="paint2_linear_10_178" x1="7.77551" y1="17.5025" x2="14.3815" y2="17.5025" gradientUnits="userSpaceOnUse">
<stop offset="0.0919165" stop-color="#6CC04A"/>
<stop offset="0.2864" stop-color="#66B848"/>
<stop offset="0.5968" stop-color="#54A044"/>
<stop offset="0.8624" stop-color="#41873F"/>
</linearGradient>
<linearGradient id="paint3_linear_10_178" x1="7.77546" y1="18.4425" x2="14.3815" y2="18.4425" gradientUnits="userSpaceOnUse">
<stop offset="0.0919165" stop-color="#6CC04A"/>
<stop offset="0.2864" stop-color="#66B848"/>
<stop offset="0.5968" stop-color="#54A044"/>
<stop offset="0.8624" stop-color="#41873F"/>
</linearGradient>
<linearGradient id="paint4_linear_10_178" x1="7.09461" y1="10.6232" x2="6.47179" y2="19.0061" gradientUnits="userSpaceOnUse">
<stop stop-color="#41873F"/>
<stop offset="0.3288" stop-color="#418B3D"/>
<stop offset="0.6352" stop-color="#419637"/>
<stop offset="0.9319" stop-color="#3FA92D"/>
<stop offset="1" stop-color="#3FAE2A"/>
</linearGradient>
</defs>
</svg>
