<svg width="30" height="30" viewBox="0 0 30 30" fill="none" xmlns="http://www.w3.org/2000/svg">
<g clip-path="url(#clip0_12_181)">
<path d="M14.856 0.117188C7.25848 0.117188 7.73292 3.41194 7.73292 3.41194L7.74139 6.82526H14.9915V7.85011H4.86166C4.86166 7.85011 0 7.29875 0 14.9647C-5.41875e-07 22.6307 4.24337 22.3589 4.24337 22.3589H6.77583V18.8015C6.77583 18.8015 6.63933 14.5582 10.9514 14.5582H18.1423C18.1423 14.5582 22.1824 14.6235 22.1824 10.6536V4.08952C22.1824 4.08952 22.7958 0.117188 14.856 0.117188ZM10.8583 2.4125C11.5796 2.4125 12.1626 2.99551 12.1626 3.71685C12.1626 4.43819 11.5796 5.0212 10.8583 5.0212C10.1369 5.0212 9.55392 4.43819 9.55392 3.71685C9.55392 2.99551 10.1369 2.4125 10.8583 2.4125Z" fill="url(#paint0_linear_12_181)"/>
<path d="M15.0717 29.8891C22.6693 29.8891 22.1948 26.5944 22.1948 26.5944L22.1864 23.1811H14.9362V22.1562H25.0661C25.0661 22.1562 29.9277 22.7076 29.9277 15.0416C29.9277 7.37561 25.6844 7.64746 25.6844 7.64746H23.1519V11.2048C23.1519 11.2048 23.2884 15.4481 18.9763 15.4481H11.7855C11.7855 15.4481 7.74536 15.3828 7.74536 19.3527V25.9168C7.74536 25.9168 7.13196 29.8891 15.0717 29.8891ZM19.0695 27.5938C18.3481 27.5938 17.7651 27.0108 17.7651 26.2895C17.7651 25.5681 18.3481 24.9851 19.0695 24.9851C19.7908 24.9851 20.3738 25.5681 20.3738 26.2895C20.3738 27.0108 19.7908 27.5938 19.0695 27.5938Z" fill="url(#paint1_linear_12_181)"/>
</g>
<defs>
<linearGradient id="paint0_linear_12_181" x1="2.87612" y1="2.79509" x2="17.7072" y2="17.4783" gradientUnits="userSpaceOnUse">
<stop stop-color="#387EB8"/>
<stop offset="1" stop-color="#366994"/>
</linearGradient>
<linearGradient id="paint1_linear_12_181" x1="11.9794" y1="12.2237" x2="27.9065" y2="27.28" gradientUnits="userSpaceOnUse">
<stop stop-color="#FFE052"/>
<stop offset="1" stop-color="#FFC331"/>
</linearGradient>
<clipPath id="clip0_12_181">
<rect width="30" height="30" fill="white"/>
</clipPath>
</defs>
</svg>
