<svg width="30" height="30" viewBox="0 0 30 30" fill="none" xmlns="http://www.w3.org/2000/svg">
<path fill-rule="evenodd" clip-rule="evenodd" d="M10.0927 18.2525C9.62777 18.5433 8.92725 19.0143 8.38531 19.5267C7.4956 20.3669 7.30942 21.5324 7.77877 21.8046C8.21292 22.0563 9.22652 21.7568 9.95194 20.9656C10.7133 20.1349 11.0272 19.0818 10.703 17.8863C10.6649 17.909 10.6275 17.9318 10.5908 17.953L10.5916 17.9546L10.5424 17.9825C10.3531 18.0955 10.1984 18.1887 10.0927 18.2525ZM23.1584 17.8753C22.8951 18.4477 22.8819 18.6319 22.9619 18.6892C23.344 18.5519 23.9762 18.221 23.9812 17.3344C23.982 17.2016 23.9527 17.0591 23.9058 16.9102C23.4972 17.272 23.2617 17.6508 23.1584 17.8753ZM27.259 16.1448C26.2381 16.0258 25.4415 16.169 24.8233 16.4266C24.9377 16.7246 25.0257 17.0349 25.0381 17.3476C25.0668 18.0338 24.5945 18.5417 24.1022 18.9042C23.8148 19.1156 23.5089 19.2565 23.2521 19.3416C23.0468 19.4282 22.774 19.5177 22.5803 19.4782C22.1533 19.3914 21.9261 19.0121 22.2165 18.1755C22.3734 17.7228 22.826 17.0335 23.5565 16.4399C23.39 16.0971 23.2044 15.7479 23.1098 15.427C22.9235 14.7945 22.8672 14.4121 22.8672 14.4121C22.8672 14.4121 22.265 15.6605 21.4882 16.7958C21.4434 16.8618 21.3987 16.9264 21.3539 16.9909C21.5065 17.3455 21.6267 17.7205 21.643 18.0985C21.6716 18.7846 21.3745 19.3035 20.8816 19.6653C20.6147 19.862 20.33 19.9979 20.0858 20.0844C19.9296 20.1526 19.6119 20.2648 19.1602 20.295C18.9131 20.3119 18.6754 20.2966 18.5427 20.196C18.36 20.058 18.338 19.8877 18.4326 19.6551C18.5126 19.4576 19.1111 18.7744 19.6128 18.1763C19.7514 18.0111 19.8834 17.8423 20.0015 17.6861L19.9986 17.6794C19.9986 17.6795 20.0895 17.5621 20.2369 17.3573C20.0536 16.9624 19.8211 16.5514 19.7118 16.1786C19.5254 15.5461 19.469 15.1636 19.469 15.1636C19.469 15.1636 18.8587 16.7284 18.2229 17.9774C17.7308 18.9448 17.4021 19.5311 17.2541 19.7879L17.2526 19.7982C17.2526 19.7982 17.2305 19.8357 17.1924 19.8944L17.1639 19.942L17.1631 19.9376C16.998 20.1814 16.6276 20.659 16.2595 20.659C15.2488 20.659 15.6198 18.6064 15.6198 18.6064C15.6198 18.6064 15.3244 19.3667 14.9913 20.0191C14.72 20.5512 14.4729 21.0019 13.9323 21.0019C13.7768 21.0019 13.5304 20.9974 13.3257 20.8028C12.8614 20.3618 12.5065 19.2418 12.5761 18.3744C12.6355 17.6369 12.7491 17.126 12.9046 16.6998C12.6274 16.8509 12.3069 17.03 11.9805 17.2216L11.4788 17.5173L11.495 17.5467C11.91 18.3496 12.0208 20.1087 11.1157 21.4591C10.2107 22.8101 8.52599 23.6321 6.88457 23.1757C6.35492 23.0281 5.55481 21.9324 6.24493 20.4052C6.85367 19.0584 9.28651 17.7852 9.92764 17.4674L10.1036 17.3705C8.82536 16.252 5.6333 14.7432 5.18595 12.4255C5.05976 11.7731 5.36563 10.2129 7.28132 8.41925C8.89265 6.91111 11.1341 5.75594 13.2047 5.01981C16.6833 3.78325 20.3587 4.51267 20.9242 6.73053C21.4801 8.9117 19.5879 11.5207 17.1646 12.4586C15.0009 13.2959 13.212 13.1631 12.4771 12.9218C11.6417 12.6473 11.1517 12.0961 11.0322 11.7849C10.9852 11.6631 10.9044 11.4584 11.0322 11.3879C11.1106 11.3446 11.1421 11.3549 11.3519 11.5868C11.5515 11.807 12.3538 12.3978 13.8779 12.2267C17.8775 11.7784 20.2867 8.66883 19.5254 6.9955C18.9923 5.82423 15.9096 5.29578 12.0582 7.21638C7.35682 9.56043 7.10164 11.4928 7.06135 12.2267C6.95126 14.2456 9.55128 15.3076 10.9581 16.8091L11.0123 16.8685C11.2756 16.7233 11.5537 16.5699 11.8264 16.4202C12.5358 16.0304 13.2047 15.6649 13.5164 15.4946C14.0115 14.7749 15.0162 13.9807 15.7416 13.9807C16.9012 13.9807 16.5029 15.6474 16.5029 15.6474C16.5029 15.6474 16.5264 15.5711 16.5579 15.5704C16.5909 15.5695 16.7186 15.3508 17.0766 15.4814C17.4447 15.6165 17.361 15.8749 17.3633 15.9013C17.3677 15.9525 16.9284 17.4343 16.7458 18.3847C16.6584 18.8382 16.709 19.1686 16.7348 19.1686C16.7707 19.1686 16.8441 19.0533 16.9123 18.9293L16.9108 18.9256C16.9108 18.9256 16.9621 18.8317 17.048 18.663L17.0649 18.6277L17.0656 18.6293C17.1669 18.4311 17.3091 18.1397 17.4733 17.7787C17.7953 17.069 19.0238 14.3293 19.128 14.0263C19.232 13.7232 19.2863 13.4098 19.3377 13.2754C19.3883 13.1411 19.8226 13.0399 20.33 13.0436C20.8376 13.0473 20.8891 13.2637 20.8926 13.3085C20.8963 13.3532 20.6513 13.9544 20.5948 14.3792C20.5391 14.8042 20.5927 15.0161 20.6389 15.3729C20.669 15.6062 20.8149 15.9021 20.9874 16.2374C21.5125 15.3787 22.4365 13.7363 22.5253 13.2761C22.5861 12.9614 22.6837 12.6597 22.7351 12.5253C22.7864 12.391 23.2199 12.2898 23.7274 12.2934C24.2349 12.2971 24.2862 12.5136 24.2899 12.5584C24.2936 12.6032 24.0478 13.2042 23.9921 13.6292C23.9363 14.0534 23.99 14.2662 24.0361 14.6229C24.0758 14.9282 24.3119 15.3384 24.546 15.8051C25.1847 15.4902 25.9365 15.2789 26.8167 15.2745C27.1812 15.2724 27.6045 15.309 27.823 15.3772V8.35606C27.823 7.86071 27.5692 7.40426 27.1402 7.15699L15.6867 0.537093C15.2585 0.289719 14.734 0.289719 14.3057 0.537093L2.88379 7.15379C2.45544 7.40116 2.22656 7.85841 2.22656 8.35296V21.5984C2.22656 22.093 2.45684 22.5502 2.88449 22.7975L14.3248 29.4194C14.753 29.6676 15.2724 29.6676 15.7006 29.4194L27.1461 22.7975C27.5744 22.5494 27.8238 22.0929 27.8238 21.5984V16.2454C27.6785 16.2026 27.4659 16.1689 27.259 16.1448ZM14.9371 15.4512C14.6914 15.7264 14.2727 16.436 14.0768 17.0299C13.6873 18.2092 13.856 19.4077 14.1318 19.4797C14.4538 19.564 14.9819 17.9876 15.2348 17.3711C15.3933 16.985 16.0094 15.2715 15.8744 15.0425C15.769 14.8635 15.3325 15.008 14.9371 15.4512ZM19.3929 19.426C19.3929 19.426 19.3152 19.4995 19.3488 19.52C19.3943 19.5472 19.4926 19.5119 19.5997 19.4561C19.9027 19.2654 20.5825 18.7897 20.584 18.0859C20.584 18.0654 20.5832 18.0456 20.5818 18.0243C20.4241 18.2313 20.2788 18.4155 20.1535 18.5718C19.9393 18.8381 19.3929 19.426 19.3929 19.426Z" fill="#8CC84B"/>
</svg>
